<svg width="17" height="19" viewBox="0 0 17 19" fill="none" xmlns="http://www.w3.org/2000/svg">
<path d="M13.9709 4.28862L13.9709 4.28863L13.969 4.28644C13.5675 3.83282 12.9041 3.75815 12.4356 4.09543L12.4351 4.09575C11.9371 4.45319 11.7681 5.1167 12.0467 5.6684L12.0481 5.67113C12.1099 5.79599 12.21 5.92304 12.3295 6.04251L12.3313 6.04429C13.7678 7.49825 14.3446 9.27354 13.8342 11.3294L13.8341 11.3296C13.3467 13.2894 12.0917 14.5916 10.2445 15.1774L10.244 15.1775C8.44331 15.7457 6.74731 15.3828 5.29391 14.1611C4.0411 13.1107 3.39949 11.6968 3.37744 10.0317C3.35844 8.70297 3.80427 7.52801 4.62337 6.52523C4.69464 6.43742 4.7743 6.36627 4.83168 6.31547C4.8367 6.31102 4.84156 6.30672 4.84627 6.30256C4.90262 6.25272 4.93767 6.22171 4.96801 6.18823L4.96799 6.18821L4.97099 6.18498C5.30076 5.82901 5.38908 5.42546 5.24514 4.95201C5.09948 4.48529 4.79135 4.22029 4.32757 4.12619C3.98897 4.05824 3.68274 4.14284 3.38094 4.38519L3.37973 4.38615C2.77752 4.86593 2.35491 5.51599 1.96094 6.25149C1.29893 7.48854 1.00048 8.82404 1.04799 10.2449L1.048 10.2453C1.10389 11.978 1.65234 13.5167 2.68691 14.8675C3.66914 16.1469 4.89553 17.0439 6.37936 17.4968L6.3797 17.4969C8.91202 18.2722 11.2522 17.8674 13.3721 16.2076L13.3723 16.2075C14.7443 15.1347 15.6462 13.7092 16.0941 11.9676L16.0945 11.9659C16.2628 11.3236 16.336 10.6623 16.3391 9.98216C16.3075 7.81728 15.5663 5.97538 14.1077 4.4439L14.3973 4.16803L14.1085 4.44473C14.0771 4.412 14.0258 4.35227 13.9948 4.31628C13.9834 4.30294 13.9747 4.29286 13.9709 4.28862Z" fill="#FE724C" stroke="white" stroke-width="0.8"/>
<path d="M7.11151 7.65628C7.11444 8.49663 7.72622 9.19335 8.52242 9.2728C9.34789 9.35836 10.0855 8.80221 10.2495 7.96492C10.2729 7.84574 10.2758 7.72351 10.2758 7.60128M7.11151 7.65628C7.10566 5.39499 7.10566 4.60035 7.11151 2.33906C7.11151 1.73707 7.38374 1.26953 7.87258 0.96395C8.38192 0.643091 8.92638 0.630868 9.44742 0.930336C9.98017 1.23592 10.267 1.72179 10.27 2.36351M7.11151 7.65628L7.51151 7.65525C7.51151 7.65522 7.51151 7.65519 7.51151 7.65516C7.5139 8.30411 7.98339 8.81703 8.56214 8.87478L8.56366 8.87493C9.17581 8.93838 9.73131 8.52967 9.85693 7.88807L9.85698 7.88779C9.87228 7.80995 9.8758 7.7216 9.87582 7.60232M7.11151 7.65628L7.51151 7.65489L9.87582 7.60232M10.27 2.36351C10.2718 3.08128 10.2713 3.50091 10.2707 4.003C10.2703 4.28754 10.27 4.59855 10.27 5.00531V5.00536C10.27 6.11458 10.27 6.49204 10.2758 7.60128M10.27 2.36351L9.86997 2.36533C9.86997 2.36521 9.86997 2.36509 9.86997 2.36496M10.27 2.36351L9.86996 2.36455C9.86997 2.36469 9.86997 2.36482 9.86997 2.36496M10.2758 7.60128L9.87582 7.60339C9.87582 7.60303 9.87582 7.60267 9.87582 7.60232M10.2758 7.60128H9.87582C9.87582 7.60162 9.87582 7.60197 9.87582 7.60232M9.87582 7.60232C9.86996 6.49287 9.86996 6.11451 9.86996 5.00531C9.86996 4.59751 9.87035 4.2862 9.8707 4.00162C9.87132 3.50022 9.87183 3.08182 9.86997 2.36496M9.87582 7.60232L7.51151 2.3401L7.51151 2.33906C7.51151 1.87802 7.7101 1.53724 8.08461 1.30313L8.08579 1.3024L8.08579 1.30239C8.47049 1.06005 8.85624 1.05192 9.2481 1.27714L9.2484 1.27731C9.65564 1.5109 9.86758 1.86417 9.86997 2.36496" fill="#FE724C" stroke="white" stroke-width="0.8"/>
</svg>
